<?xml version="1.0" encoding="utf-8"?>
<!-- Generator: Adobe Illustrator 18.1.0, SVG Export Plug-In . SVG Version: 6.00 Build 0)  -->
<svg version="1.1" id="Layer_1" xmlns="http://www.w3.org/2000/svg" xmlns:xlink="http://www.w3.org/1999/xlink" x="0px" y="0px"
	 width="256px" height="256px" viewBox="0 0 256 256" style="enable-background:new 0 0 256 256;" xml:space="preserve">
<style type="text/css">
	.st0{fill:#3B3A33;}
</style>
<g>
	<path class="st0" d="M42.1,108l0.3-0.3c0.4-1.5,1.1-6.6-3.9-11.4c-5-4.8-10.8-4.9-12.6-4.9l-0.1,0.1c0,1.7,0.3,7.5,5,12.4
		C35.7,108.9,40.6,108.3,42.1,108z"/>
	<path class="st0" d="M141.7,167.7c3.4-3.6,3.6-7.7,3.6-9l0,0c-1.3-0.1-5.5,0.1-9.1,3.5c-0.6,0.6-1.2,1.3-1.6,1.9v-13.4
		c3,2.6,7,4.2,11.3,4.2h46.3c6.1,0,11.5-3.2,14.5-7.9h10.1c9.5,0,17.3-7.8,17.3-17.3v-16c1.6,0.1,4.4-0.3,7-3.1
		c3.5-3.6,3.7-7.7,3.6-9l0,0c-1.3-0.1-5.5,0.1-9.1,3.5c-0.6,0.6-1.1,1.2-1.5,1.8v-1c0-1.6-1.3-3-3-3c-1.6,0-3,1.3-3,3v12.4
		c-0.1-0.1-0.2-0.2-0.2-0.2c-3.6-3.5-7.9-3.6-9.1-3.5l0,0.1c0,1.3,0.2,5.4,3.7,9c2.1,2.1,4.2,2.9,5.8,3v3.2
		c0,6.3-5.1,11.3-11.3,11.3h-7.7c0.2-0.9,0.3-1.8,0.3-2.7c0.2-1.3,0.3-4.3-2.6-7.1c-3.2-3.1-7.1-3.2-8.2-3.2l0,0
		c0,1.1,0.2,4.9,3.3,8.1c0.5,0.6,1.1,1,1.6,1.4c0,0,0,0,0,0c0,6.2-5.1,11.3-11.3,11.3h-10.9c2.6-3,4.2-7,4.2-11.3v-22.7
		c2.1,0.2,6.2,0,10.3-4.2c4.8-4.9,5.1-10.7,5-12.4l-0.1-0.1c-1.8-0.1-7.6,0.1-12.6,4.9c-1.2,1.1-2,2.3-2.7,3.4V89.3
		c0-0.1,0-0.3,0-0.4c0,0,0-0.2,0-0.4c1.1,0.2,4.2,0.4,7.2-2.7c3.1-3.2,3.3-7,3.3-8.1l0,0c-1.2,0-5,0.1-8.2,3.2c-1,0.9-1.6,1.9-2,2.8
		c0.3-2.2,1.1-4.8,2.9-6.9c2.3-2.7,5.9-4,10.8-4c1.6,0,3-1.3,3-3c0-1.6-1.3-3-3-3c-6.7,0-11.9,2-15.3,6.1c-5.4,6.2-4.6,15-4.4,16.6
		v8c-0.6-1.4-1.6-2.9-3.2-4.4c-4.9-4.8-10.8-4.9-12.6-4.9l-0.1,0.1c0,1.7,0.3,7.5,5,12.4c4.4,4.6,8.9,4.5,10.8,4.2v16.4
		c-0.7-1.2-1.7-2.4-2.9-3.5c-6.2-5.9-13.4-6.1-15.6-6.1l-0.1,0.1c0,2.2,0.3,9.3,6.2,15.4c4.8,4.9,9.7,5.5,12.4,5.3v5.1
		c0,6.3-5.1,11.3-11.3,11.3H146c-6,0-10.9-4.7-11.3-10.6l0.1,0.1c1.1,0.2,4.6,0.6,8.1-2.9c3.4-3.6,3.6-7.7,3.6-9l-0.1,0
		c-1.3-0.1-5.5,0.1-9.1,3.5c-1.6,1.6-2.4,3.2-2.8,4.6v-10.2c0.3,0.1,0.7,0.2,1.1,0.2c9.5,0,17.3-7.8,17.3-17.3V92
		c1.5,0.1,4.5-0.1,7.4-3c3.4-3.6,3.6-7.7,3.6-9l0,0c-1.3-0.1-5.5,0.1-9.1,3.5c-0.8,0.8-1.4,1.6-1.9,2.4V59.5
		c1.6,0.3,6.4,0.8,11.1-4.1c4.8-4.9,5-10.7,5-12.4l-0.1-0.1c-1.8-0.1-7.6,0.1-12.6,4.9c-1.9,1.8-2.9,3.7-3.5,5.3V36.8
		c0-1.6-1.3-3-3-3c-1.2,0-2.1,0.7-2.6,1.6c-0.5-2.5-1.9-5.4-4.8-8.3c-6.2-5.9-13.4-6.1-15.6-6.1l-0.1,0.1c0,2.2,0.3,9.3,6.2,15.4
		c5.9,6.1,12.1,5.5,13.9,5.1l0,0v22.1c-0.6-1.4-1.6-2.9-3.2-4.4c-5-4.8-10.8-4.9-12.6-4.9l-0.1,0.1c0,1.7,0.3,7.5,5,12.4
		c4.4,4.6,8.9,4.5,10.8,4.2v36.1c0,6.2-5.1,11.3-11.3,11.3c-0.4,0-0.8,0.1-1.1,0.2v-5c0,0,0,0,0-0.1v-8.8l0,0c1,0.2,4.2,0.6,7.3-2.6
		c3.1-3.2,3.3-6.9,3.3-8.1l0,0c-1.1,0-5,0.1-8.2,3.2c-1.3,1.3-2,2.6-2.4,3.7V82.9c0-9.5-7.8-17.3-17.3-17.3h-3.2
		c-0.1-1.6-0.7-3.9-2.9-6.1c-3.5-3.4-7.7-3.5-8.9-3.5l0,0c0,1.2,0.2,5.3,3.6,8.8c0.3,0.3,0.5,0.5,0.8,0.7h-10
		c-0.5-2.6-1.8-5.7-4.9-8.7c-6.2-5.9-13.4-6.1-15.6-6L76,51c0,2.2,0.3,9.3,6.2,15.4c5.6,5.8,11.3,5.5,13.5,5.2h21.6
		c6.2,0,11.3,5.1,11.3,11.3v8.5c-0.7-2.1-2-4.4-4.4-6.6c-6.2-5.9-13.4-6.1-15.6-6l-0.1,0.1c0,2.2,0.3,9.3,6.2,15.4
		c5.9,6.1,11.9,5.5,13.9,5.1V128c0,0,0,0,0,0v9.4c-0.6-1.4-1.6-2.8-3-4.2c-5-4.8-10.8-4.9-12.6-4.9l-0.1,0.1c0,1.7,0.3,7.5,5,12.4
		c4.3,4.5,8.7,4.5,10.7,4.2v6.8c0,6.3-5.1,11.3-11.3,11.3h-10.5c2.6-3,4.2-7,4.2-11.3v-37.2c1.4,0.2,4.4,0.1,7.4-2.9
		c3.3-3.5,3.5-7.5,3.5-8.7l0,0c-1.2,0-5.3,0.1-8.8,3.4c-1,0.9-1.6,1.9-2.1,2.8v-5.6c0-9.2-7.3-16.8-16.4-17.3c-0.4-1-1.1-2-2.2-3
		c-3.5-3.4-7.7-3.5-8.9-3.5l0,0c0,1.2,0.2,5.3,3.6,8.8c1.6,1.7,3.3,2.5,4.7,2.8c0.5,0.4,1.2,0.7,1.9,0.7c6.2,0,11.3,5.1,11.3,11.3
		v16.6c-0.6-1.3-1.6-2.7-3-4c-5-4.8-10.8-4.9-12.6-4.9l-0.1,0.1c0,1.7,0.3,7.5,5,12.4c4.3,4.4,8.6,4.5,10.6,4.2v17
		c-0.7-1.9-1.9-3.9-4-6c-5.6-5.4-12.2-5.6-14.2-5.5l-0.1,0.1c0,2,0.3,8.5,5.7,14c5.3,5.5,10.7,5,12.6,4.6c-0.2,6.1-5.2,11-11.3,11
		h-9.9H70.5v-4.7c1.6,0.2,5.3,0.3,8.9-3.4c4-4.1,4.2-8.8,4.2-10.3l-0.1-0.1c-1.5-0.1-6.3,0.1-10.4,4c-1.3,1.2-2.1,2.5-2.6,3.6v-24.5
		c1.4,0.2,4.4,0.1,7.4-2.9c3.3-3.4,3.5-7.5,3.5-8.7l0,0c-1.2-0.1-5.3,0.1-8.8,3.4c-0.9,0.9-1.6,1.8-2,2.7c0.3-6,5.2-10.8,11.3-10.8
		c1.6,0,3-1.3,3-3c0-1.6-1.3-3-3-3c-9.5,0-17.3,7.8-17.3,17.3v9.5c-0.4-1-1.1-2-2.2-3.1c-3.3-3.2-7.2-3.3-8.3-3.2l0,0
		c0,1.2,0.2,5,3.3,8.2c3,3.1,6,2.9,7.2,2.7v26.2H60c-5.4,0-9.9-3.8-11.1-8.9l0.1,0.1c1.3,0.3,5.3,0.7,9.3-3.4
		c3.9-4.1,4.2-8.8,4.2-10.3l0-0.1c-1.5-0.1-6.3,0.1-10.4,4c-2.2,2.2-3.1,4.4-3.3,6.2v-36.6c0,0.2,0.1,0.4,0.1,0.5l0.3,0.3
		c1.5,0.3,6.4,0.9,11.2-4.1c4.8-4.9,5-10.7,5-12.4l-0.1-0.1c-1.8-0.1-7.6,0.1-12.6,4.9c-2.6,2.5-3.7,5.1-4,7.3V88.5c0-1.6-1.3-3-3-3
		c-1.6,0-3,1.3-3,3v37.9c-0.8-1.8-2-3.7-3.9-5.5c-6.2-5.9-13.4-6.1-15.6-6l-0.1,0.1c0,2.2,0.3,9.3,6.2,15.4
		c5.5,5.7,11.1,5.5,13.4,5.2v16.3c0,4.3,1.6,8.3,4.2,11.3H32.9c-5.2,0-9.5-3.5-10.9-8.2c2,0.2,6.3,0.1,10.4-4.2
		c4.8-4.9,5-10.7,5-12.4l-0.1-0.1c-1.8-0.1-7.6,0.1-12.6,4.9c-2.5,2.4-3.5,4.8-3.9,6.9c-0.5-0.7-1.4-1.1-2.3-1.1
		c-0.5,0-0.9,0.1-1.3,0.3c-0.3-1.3-1-2.9-2.6-4.5c-3.3-3.2-7.2-3.3-8.3-3.2l0,0c0,1.2,0.2,5,3.3,8.2c2.2,2.3,4.5,2.8,6,2.8
		c0.4,9.2,8,16.5,17.3,16.5H60h4.5v1.9c0,0.6,0,1.1,0.1,1.7c-2.8-1.8-5.6-1.9-6.6-1.8l0,0c0,1.2,0.2,5,3.3,8.2
		c2.9,3,5.8,2.9,7.1,2.8c2.8,3.4,6.8,5.7,11.4,6.3c-1.6,0.3-3.4,1.2-5.3,3.1c-3.7,3.8-3.9,8.3-3.9,9.7l0,0.1
		c1.4,0.1,5.9-0.1,9.8-3.8c3.9-3.7,3.3-7.7,3-8.9l0,0h18.7c-0.9,0.4-1.9,1.1-2.8,2.1c-3.1,3.2-3.3,7-3.3,8.2l0,0
		c1.2,0,5-0.1,8.3-3.2c2.9-2.8,2.9-5.6,2.7-7c5.7,0.6,10.2,5.4,10.2,11.3v17.9c0,6.2-5.1,11.3-11.3,11.3c-1.6,0-3,1.3-3,3
		c0,1.7,1.3,3,3,3c9.5,0,17.3-7.8,17.3-17.3v-17.9c0-2.6-0.6-5.1-1.6-7.4c7.6-1.9,13.2-8.7,13.2-16.8v-4.9
		C136.2,170.8,139,170.5,141.7,167.7z M117.4,186.9c-3.1-2.8-7.1-4.5-11.6-4.5h-0.1c0,0,0,0,0,0H88c0.8-0.4,1.7-1,2.5-1.9
		c3.1-3.2,3.3-6.9,3.3-8.1l0,0c-1.1-0.1-4.9,0.1-8.2,3.2c-2.8,2.7-2.8,5.5-2.6,6.9h-1.1c-6.2,0-11.3-5.1-11.3-11.3v-1.9h13.4h9.9
		h23.5c4.3,0,8.3-1.6,11.3-4.2v10.7C128.7,181.8,123.6,186.9,117.4,186.9z"/>
	<path class="st0" d="M153.3,36.8c1,0.2,4.2,0.6,7.3-2.6c3.1-3.2,3.3-6.9,3.3-8.1l0,0c-1.1,0-5,0.1-8.2,3.2
		c-3.2,3.1-2.8,6.4-2.5,7.4L153.3,36.8z"/>
	<path class="st0" d="M249.7,137.3L249.7,137.3c-1.3-0.1-5.6,0-9.2,3.5c-0.5,0.5-1,1-1.3,1.5c-0.4-1.1-1.5-1.9-2.8-1.9
		c-1.6,0-3,1.3-3,3v17.3c-0.6-1.5-1.6-3.1-3.2-4.6c-4.9-4.7-10.7-4.9-12.5-4.8l-0.1,0.1c0,1.7,0.3,7.4,5,12.3
		c4.4,4.6,8.9,4.4,10.8,4.1c-0.3,6-5.2,10.8-11.3,10.8h-27.6c1-0.6,2-1.4,3.1-2.4c4.5-4.6,4.7-10,4.7-11.6l-0.1-0.1
		c-1.6-0.1-7.1,0.1-11.8,4.6c-3.8,3.7-4.1,7.5-3.8,9.5h-12.8c-5.8,0-10.7-4.5-11.3-10.1h19.3c0.9,0,1.6-0.4,2.2-1
		c1.4-0.1,3.3-0.7,5.2-2.6c3-3.1,3.1-6.6,3.1-7.7l0,0c-1.1,0-4.7,0.1-7.8,3c-0.9,0.8-1.4,1.7-1.8,2.5c-0.2-0.1-0.5-0.1-0.8-0.1H158
		c-9.5,0-17.3,7.8-17.3,17.3v37.9c0,9.5,7.8,17.3,17.3,17.3c1.6,0,3-1.3,3-3c0-1.7-1.3-3-3-3c-6.2,0-11.3-5.1-11.3-11.3v-19.3
		c1,0.1,3-0.1,4.8-2c2.3-2.3,2.4-5.1,2.4-5.9l0,0c-0.8,0-3.6,0-6,2.3c-0.5,0.5-0.9,1-1.2,1.5v-7.4c1.4,0.1,3.7-0.3,6-2.7
		c3-3.1,3.1-6.6,3.1-7.7l0,0c-1.1,0-4.8,0.1-7.8,3c-0.5,0.5-0.9,1-1.2,1.4v-1c0-5.8,4.3-10.5,9.9-11.2c0.7,8.9,8.1,16,17.2,16h26
		c-0.2,1.9-0.2,5.9,3.9,9.8c4.6,4.5,10,4.7,11.6,4.7l0.1-0.1c0.1-1.6-0.1-7.1-4.6-11.8c-1.2-1.3-2.5-2.1-3.7-2.7h15
		c9.5,0,17.3-7.8,17.3-17.3v-17.8c1.6,0,4.2-0.5,6.6-3.1C249.5,142.7,249.7,138.6,249.7,137.3z"/>
</g>
<g>
</g>
<g>
</g>
<g>
</g>
<g>
</g>
<g>
</g>
<g>
</g>
<g>
</g>
<g>
</g>
<g>
</g>
<g>
</g>
<g>
</g>
<g>
</g>
<g>
</g>
<g>
</g>
<g>
</g>
</svg>
